<svg id="Logo" xmlns="http://www.w3.org/2000/svg" width="201.062" height="68" viewBox="0 0 201.062 68">
  <metadata><?xpacket begin="﻿" id="W5M0MpCehiHzreSzNTczkc9d"?>
<x:xmpmeta xmlns:x="adobe:ns:meta/" x:xmptk="Adobe XMP Core 5.6-c140 79.160451, 2017/05/06-01:08:21        ">
   <rdf:RDF xmlns:rdf="http://www.w3.org/1999/02/22-rdf-syntax-ns#">
      <rdf:Description rdf:about=""/>
   </rdf:RDF>
</x:xmpmeta>
                                                                                                    
                                                                                                    
                                                                                                    
                                                                                                    
                                                                                                    
                                                                                                    
                                                                                                    
                                                                                                    
                                                                                                    
                                                                                                    
                                                                                                    
                                                                                                    
                                                                                                    
                                                                                                    
                                                                                                    
                                                                                                    
                                                                                                    
                                                                                                    
                                                                                                    
                                                                                                    
                           
<?xpacket end="w"?></metadata>
<defs>
    <style>
      .cls-1, .cls-2 {
        fill: #fff;
      }

      .cls-1, .cls-3 {
        fill-rule: evenodd;
      }

      .cls-3 {
        fill: #484ccb;
      }
    </style>
  </defs>
  <path id="ADPLEXITY" class="cls-1" d="M308.753,144.012l-2.534-6.67h-1.755l-2.534,6.67h1.587l0.414-1.13h2.82l0.414,1.13h1.588Zm-2.386-2.38h-2.051l1.025-2.87Zm7.689,2.38a3.338,3.338,0,1,0-.009-6.67h-2.594v6.67h2.6Zm-0.009-1.25h-1.193v-4.17h1.2a1.933,1.933,0,0,1,2.051,2.08A1.985,1.985,0,0,1,314.047,142.762Zm7.975,1.25v-2.38H323.7a2.146,2.146,0,1,0,0-4.29h-3.076v6.67h1.4Zm1.479-3.63h-1.479v-1.79H323.5A0.9,0.9,0,1,1,323.5,140.382Zm9.5,3.63v-1.25h-2.78v-5.42h-1.41v6.67h4.19Zm7.69,0v-1.25h-3.253v-1.52h3.184v-1.25h-3.184v-1.4H340.7v-1.25h-4.653v6.67H340.7Zm9.15,0-2.386-3.43,2.238-3.24h-1.686l-1.489,2.28-1.509-2.28h-1.666l2.238,3.25-2.386,3.42h1.666l1.657-2.44,1.646,2.44h1.677Zm4.11,0v-6.67h-1.4v6.67h1.4Zm6.32,0v-5.42h1.913v-1.25h-5.246v1.25h1.923v5.42h1.41Zm8.134,0v-2.73l2.514-3.94h-1.588l-1.626,2.67-1.627-2.67h-1.6l2.524,3.94v2.73h1.4Z" transform="translate(-301.938 -76)"/>
  <path class="cls-1" d="M322.147,129.846l44.976,0.025L336.459,76,309.84,122.648l8.194,0.005,11.246-19.7v0.021l7.171-12.56,18.354,32.243-28.545-.015Zm-16.41-.009,8.193,0.005,4.1-7.189-8.194-.005Zm24.934-14.254h12.68l-6.34-11.751Z" transform="translate(-301.938 -76)"/>
  <rect id="Rounded_Rectangle_575" data-name="Rounded Rectangle 575" class="cls-2" x="88.062" y="18" width="113" height="24" rx="12" ry="12"/>
  <path id="CARRIERS" class="cls-3" d="M407.3,101.8a4.54,4.54,0,1,0-.052,9.066,5.269,5.269,0,0,0,3.552-1.473l-0.918-1a3.837,3.837,0,0,1-2.556,1.062,3.158,3.158,0,1,1,0-6.312,3.62,3.62,0,0,1,2.556,1.139l0.9-1.1A5.124,5.124,0,0,0,407.3,101.8Zm13.7,6.979,0.878,2.023h1.652l-4.011-8.964h-1.586l-4.05,8.964H415.5l0.878-2.023h4.627Zm-0.59-1.345h-3.46l1.73-3.982Zm12.931,3.368h1.757l-2.058-3a2.878,2.878,0,0,0,1.9-2.907c0-1.947-1.35-3.061-3.7-3.061H427.53V110.8h1.547v-2.7h2.175c0.144,0,.289,0,0.42-0.013Zm-4.272-4.059v-3.547h2.175c1.416,0,2.228.563,2.228,1.741,0,1.217-.812,1.806-2.228,1.806h-2.175ZM445.6,110.8h1.756l-2.057-3a2.878,2.878,0,0,0,1.9-2.907c0-1.947-1.35-3.061-3.7-3.061H439.78V110.8h1.546v-2.7H443.5c0.144,0,.288,0,0.419-0.013Zm-4.273-4.059v-3.547H443.5c1.416,0,2.228.563,2.228,1.741,0,1.217-.812,1.806-2.228,1.806h-2.176Zm12.25,4.059v-8.964h-1.547V110.8h1.547Zm11.741-7.606v-1.358h-6.554V110.8h6.711v-1.357H460.31v-2.472h4.483v-1.357H460.31v-2.42h5.007Zm10.638,7.606h1.756l-2.058-3a2.879,2.879,0,0,0,1.9-2.907c0-1.947-1.35-3.061-3.7-3.061h-3.723V110.8h1.547v-2.7h2.176c0.144,0,.288,0,0.419-0.013Zm-4.273-4.059v-3.547h2.176c1.415,0,2.228.563,2.228,1.741,0,1.217-.813,1.806-2.228,1.806h-2.176Zm13.718-4.969c-1.993,0-3.343.961-3.343,2.5,0,3.189,4.955,2.075,4.955,4.072,0,0.692-.642,1.089-1.717,1.089a4.9,4.9,0,0,1-3.107-1.306l-0.668,1.306a5.719,5.719,0,0,0,3.749,1.421c2.018,0,3.46-.986,3.46-2.586,0.013-3.227-4.941-2.177-4.941-4.136,0-.6.589-0.935,1.494-0.935a5.582,5.582,0,0,1,2.687.832l0.642-1.332A6.084,6.084,0,0,0,485.4,101.772Z" transform="translate(-301.938 -76)"/>
</svg>
