<?xml version="1.0" encoding="UTF-8"?>
<svg width="10px" height="6px" viewBox="0 0 10 6" version="1.1" xmlns="http://www.w3.org/2000/svg" xmlns:xlink="http://www.w3.org/1999/xlink">
    <!-- Generator: Sketch 49.3 (51167) - http://www.bohemiancoding.com/sketch -->
    <title>ARROW _ DOWN</title>
    <desc>Created with Sketch.</desc>
    <defs></defs>
    <g id="Find-Products" stroke="none" stroke-width="1" fill="none" fill-rule="evenodd">
        <g id="Find-Products---Hovers-+-Active-States" transform="translate(-1886.000000, -106.000000)" fill="#27C686">
            <g id="Dropdown" transform="translate(1712.000000, 72.000000)">
                <g id="ARROW-_-DOWN" transform="translate(32.000000, 34.000000)">
                    <g transform="translate(142.000000, 0.000000)" id="ARROW_DOWN">
                        <g>
                            <path d="M1.24692267,0.253159641 L4.99784934,4.18836848 L8.79648557,0.201584821 C9.07845846,-0.0741740854 9.5178636,-0.0660372968 9.79039221,0.219989722 C10.0629208,0.506016741 10.0706736,0.967185731 9.80792853,1.26312481 L5.51406692,5.76966248 C5.37928608,5.91735974 5.19270729,6.00061042 4.99784934,5.99999663 L4.99450967,5.99999663 C4.80024186,6.00021359 4.61430646,5.91720018 4.47972337,5.77016321 L0.18586176,1.26362553 C0.0138778223,1.06469728 -0.0439233562,0.784583135 0.0342313694,0.52879939 C0.112386095,0.273015645 0.314623162,0.0804219336 0.564761826,0.0235664436 C0.814900489,-0.0332890464 1.07493874,0.054231386 1.24692267,0.253159641 Z"></path>
                        </g>
                    </g>
                </g>
            </g>
        </g>
    </g>
</svg>