<?xml version="1.0" encoding="UTF-8"?>
<svg width="23px" height="23px" viewBox="0 0 23 23" version="1.1" xmlns="http://www.w3.org/2000/svg" xmlns:xlink="http://www.w3.org/1999/xlink">
    <!-- Generator: Sketch 49.3 (51167) - http://www.bohemiancoding.com/sketch -->
    <title>MAGNIFYING_GLASS</title>
    <desc>Created with Sketch.</desc>
    <defs></defs>
    <g id="Popular-Apps" stroke="none" stroke-width="1" fill="none" fill-rule="evenodd">
        <g transform="translate(-1137.000000, -253.000000)" fill="#25B87D" id="MAGNIFYING-GLASS">
            <g transform="translate(1137.000000, 253.000000)">
                <path d="M22.3304396,19.2918781 C22.8969059,19.8296575 23.1270307,20.6323496 22.9315267,21.3885137 C22.7360227,22.1446779 22.1456608,22.7352992 21.3894987,22.9312196 C20.6333365,23.1271399 19.8303884,22.8975228 19.2921945,22.3314586 L12.9899857,16.0319862 C9.25290876,18.235441 4.46007376,17.3162619 1.80364181,13.8866476 C-0.852790138,10.4570333 -0.543757783,5.58735218 2.52491476,2.52094688 C5.59358729,-0.545458424 10.4641802,-0.851575636 13.8927434,1.8064778 C17.3213067,4.46453123 18.2378001,9.25718799 16.0318136,12.9924057 L22.3304396,19.2918781 Z M8.62967409,2.18353564 C5.0679317,2.18353564 2.180569,5.07046526 2.180569,8.63167342 C2.180569,12.1928816 5.0679317,15.0798112 8.62967409,15.0798112 C12.1914165,15.0798112 15.0787792,12.1928816 15.0787792,8.63167342 C15.0787792,5.07046526 12.1914165,2.18353564 8.62967409,2.18353564 Z" id="MAGNIFYING_GLASS"></path>
            </g>
        </g>
    </g>
</svg>