<?xml version="1.0" encoding="UTF-8"?>
<svg width="16px" height="16px" viewBox="0 0 16 16" version="1.1" xmlns="http://www.w3.org/2000/svg" xmlns:xlink="http://www.w3.org/1999/xlink">
    <!-- Generator: Sketch 49.3 (51167) - http://www.bohemiancoding.com/sketch -->
    <title>CALENDAR</title>
    <desc>Created with Sketch.</desc>
    <defs></defs>
    <g id="Find-Products" stroke="none" stroke-width="1" fill="none" fill-rule="evenodd">
        <g id="Find-Products---Hovers-+-Active-States" transform="translate(-24.000000, -358.000000)" fill="#27C686">
            <g id="Sidebar" transform="translate(0.000000, 133.000000)">
                <g id="Calendar" transform="translate(0.000000, 201.000000)">
                    <g id="CALENDAR" transform="translate(24.000000, 24.000000)">
                        <g>
                            <path d="M15.25,16 L0.75,16 C0.335786438,16 -5.68434189e-14,15.6642136 -5.68434189e-14,15.25 L-5.68434189e-14,2.75 C-5.68434189e-14,2.33578644 0.335786438,2 0.75,2 L2.25,2 L2.25,2.75 C2.25,3.71649831 3.03350169,4.5 4,4.5 C4.96649831,4.5 5.75,3.71649831 5.75,2.75 L5.75,2 L10.25,2 L10.25,2.75 C10.25,3.71649831 11.0335017,4.5 12,4.5 C12.9664983,4.5 13.75,3.71649831 13.75,2.75 L13.75,2 L15.25,2 C15.6642136,2 16,2.33578644 16,2.75 L16,15.25 C16,15.6642136 15.6642136,16 15.25,16 Z M14.5,6 L1.5,6 L1.5,14.5 L14.5,14.5 L14.5,6 Z M12,3.5 C11.5857864,3.5 11.25,3.16421356 11.25,2.75 L11.25,0.75 C11.25,0.335786438 11.5857864,0 12,0 C12.4142136,0 12.75,0.335786438 12.75,0.75 L12.75,2.75 C12.75,3.16421356 12.4142136,3.5 12,3.5 Z M4,3.5 C3.58578644,3.5 3.25,3.16421356 3.25,2.75 L3.25,0.75 C3.25,0.335786438 3.58578644,0 4,0 C4.41421356,0 4.75,0.335786438 4.75,0.75 L4.75,2.75 C4.75,3.16421356 4.41421356,3.5 4,3.5 Z"></path>
                        </g>
                    </g>
                </g>
            </g>
        </g>
    </g>
</svg>