<?xml version="1.0" encoding="UTF-8"?>
<svg width="16px" height="16px" viewBox="0 0 16 16" version="1.1" xmlns="http://www.w3.org/2000/svg" xmlns:xlink="http://www.w3.org/1999/xlink">
    <!-- Generator: Sketch 49.3 (51167) - http://www.bohemiancoding.com/sketch -->
    <title>LINK</title>
    <desc>Created with Sketch.</desc>
    <defs></defs>
    <g id="Find-Stores" stroke="none" stroke-width="1" fill="none" fill-rule="evenodd">
        <g transform="translate(-415.000000, -100.000000)" fill="#25B87D" id="Search-field">
            <g transform="translate(415.000000, 97.000000)">
                <g id="LINK" transform="translate(0.000000, 3.000000)">
                    <path d="M14.8418065,5.47096774 L12.6872258,7.63096774 C11.9148077,8.40572847 10.7854948,8.70538031 9.73058065,8.41548387 L11.5292903,6.61677419 C11.5550968,6.59354839 11.5847742,6.57548387 11.6100645,6.55225806 L13.7643871,4.39225806 C14.3508412,3.7956557 14.3473642,2.83802947 13.7565931,2.24570152 C13.1658221,1.65337357 12.2082083,1.64737615 11.6100645,2.23225806 L9.45548387,4.39225806 L9.45548387,4.38967742 L7.592,6.25290323 C7.31218926,5.20188021 7.61237259,4.08135303 8.38012903,3.31096774 L10.5344516,1.15096774 C11.3008714,0.355735711 12.4372371,0.0368171742 13.5055108,0.317146477 C14.5737846,0.597475781 15.407137,1.43327465 15.6843335,2.50236556 C15.9615301,3.57145647 15.6392818,4.70688238 14.8418065,5.47096774 Z M5.98090323,11.1406452 L5.97832258,11.1380645 C5.83385472,11.2871321 5.63494019,11.3709837 5.42735484,11.3703226 C5.10904979,11.3712358 4.82282691,11.1766609 4.7065823,10.88034 C4.59033769,10.584019 4.66791355,10.2467284 4.90193548,10.0309677 L10.0229677,4.9083871 C10.2090183,4.68899443 10.501371,4.59084492 10.7821191,4.65352261 C11.0628671,4.7162003 11.2857171,4.92937007 11.3607928,5.20705981 C11.4358685,5.48474956 11.3507904,5.78117017 11.139871,5.97677419 L11.1421935,5.97935484 L5.98090323,11.1406452 Z M4.38425806,9.45806452 L2.22967742,11.6180645 C1.63320989,12.2130355 1.63199673,13.1788873 2.22696774,13.7753548 C2.82193876,14.3718224 3.78779053,14.3730355 4.38425806,13.7780645 L6.53858065,11.6180645 C6.55380645,11.6025806 6.5643871,11.5845161 6.57858065,11.5690323 L8.40180645,9.74451613 C8.68545887,10.7983197 8.38598944,11.9234199 7.616,12.6967742 L5.46141935,14.8567742 C4.26848425,16.0468585 2.33666536,16.0445476 1.1465809,14.8516126 C-0.0435035519,13.6586777 -0.0411928798,11.7268588 1.15174194,10.5367742 L3.30606452,8.37677419 C4.07632057,7.60491832 5.20090606,7.3045956 6.25341935,7.58967742 L4.39870968,9.44516129 C4.39509677,9.45032258 4.38890323,9.45290323 4.38425806,9.45806452 Z"></path>
                </g>
            </g>
        </g>
    </g>
</svg>