<?xml version="1.0" encoding="UTF-8"?>
<svg width="16px" height="16px" viewBox="0 0 16 16" version="1.1" xmlns="http://www.w3.org/2000/svg" xmlns:xlink="http://www.w3.org/1999/xlink">
    <!-- Generator: Sketch 49.3 (51167) - http://www.bohemiancoding.com/sketch -->
    <title>MAGNIFYING_GLASS_HOVER</title>
    <desc>Created with Sketch.</desc>
    <defs></defs>
    <g id="Find-Products" stroke="none" stroke-width="1" fill="none" fill-rule="evenodd">
        <g id="Find-Products---Hovers-+-Active-States" transform="translate(-447.000000, -100.000000)" fill="#25B87D">
            <g id="Search-field" transform="translate(447.000000, 98.000000)">
                <g id="MAGNIFYING-GLASS" transform="translate(0.000000, 2.000000)">
                    <path d="M15.9512178,14.8830835 C15.8143419,15.4059864 15.4059598,15.8143503 14.8830334,15.95122 C14.360107,16.0880898 13.8040158,15.9321653 13.428494,15.5433764 L9.04471746,11.1602951 C6.44362302,12.6954874 3.10665555,12.0566196 1.25660938,9.66924939 C-0.593436791,7.28187917 -0.379071342,3.89122203 1.75691431,1.75583565 C3.89289997,-0.37955074 7.28375974,-0.593107349 9.67080099,1.25741846 C12.0578422,3.10794426 12.6959521,6.44491244 11.1600779,9.04552819 L15.5433559,13.4286095 C15.9321623,13.8041144 16.0880937,14.3601806 15.9512178,14.8830835 Z M6.01052387,1.52419663 C3.53243488,1.52419663 1.52354683,3.53299451 1.52354683,6.01097227 C1.52354683,8.48895002 3.53243488,10.4977479 6.01052387,10.4977479 C8.48861286,10.4977479 10.4975009,8.48895002 10.4975009,6.01097227 C10.4975009,3.53299451 8.48861286,1.52419663 6.01052387,1.52419663 Z" id="MAGNIFYING_GLASS_HOVER"></path>
                </g>
            </g>
        </g>
    </g>
</svg>