<?xml version="1.0" encoding="UTF-8"?>
<svg width="32px" height="32px" viewBox="0 0 32 32" version="1.1" xmlns="http://www.w3.org/2000/svg" xmlns:xlink="http://www.w3.org/1999/xlink">
    <!-- Generator: Sketch 49.3 (51167) - http://www.bohemiancoding.com/sketch -->
    <title>USER</title>
    <desc>Created with Sketch.</desc>
    <defs></defs>
    <g id="Find-Products" stroke="none" stroke-width="1" fill="none" fill-rule="evenodd" opacity="0.695652174">
        <g transform="translate(-1864.000000, -20.000000)" fill="#FFFFFF" id="USER">
            <g transform="translate(1864.000000, 20.000000)">
                <g>
                    <path d="M16,32 C7.163444,32 0,24.836556 0,16 C0,7.163444 7.163444,0 16,0 C24.836556,0 32,7.163444 32,16 C32,24.836556 24.836556,32 16,32 Z M16,3 C10.8587947,2.99419767 6.19829943,6.02226192 4.1146156,10.7222925 C2.03093178,15.4223231 2.91648915,20.9091416 6.373,24.715 C8.256,23.804 7.565,24.562 10.028,23.548 C11.0938765,23.1428532 12.1350068,22.6753797 13.146,22.148 L13.17,19.759 C12.4035606,18.9591154 11.9625563,17.9024164 11.933,16.795 C11.342,16.965 11.147,16.107 11.112,15.561 C11.08,15.033 10.77,13.385 11.491,13.534 C11.3448692,12.6688935 11.2779254,11.7922643 11.291,10.915 C11.7054748,8.63333673 13.7020814,6.98117649 16.021,7.001 C19.266,7.142 20.551,9.069 20.731,10.914 C20.7399024,11.7908756 20.6696171,12.6667644 20.521,13.531 C21.242,13.384 20.928,15.031 20.893,15.557 C20.861,16.104 20.662,16.957 20.073,16.789 C20.043489,17.8953382 19.6015816,18.9507086 18.834,19.748 L18.856,22.125 C18.856,22.125 19.456,22.463 21.974,23.499 C24.437,24.513 23.746,23.799 25.629,24.713 C29.0844122,20.9067606 29.9690047,15.4203552 27.8849838,10.7209734 C25.8009628,6.0215917 21.1407487,2.99412528 16,3 Z"></path>
                </g>
            </g>
        </g>
    </g>
</svg>