<svg id="Logo" xmlns="http://www.w3.org/2000/svg" xmlns:xlink="http://www.w3.org/1999/xlink" width="251.063" height="68" viewBox="0 0 251.063 68">
  <metadata><?xpacket begin="﻿" id="W5M0MpCehiHzreSzNTczkc9d"?>
<x:xmpmeta xmlns:x="adobe:ns:meta/" x:xmptk="Adobe XMP Core 5.6-c140 79.160451, 2017/05/06-01:08:21        ">
   <rdf:RDF xmlns:rdf="http://www.w3.org/1999/02/22-rdf-syntax-ns#">
      <rdf:Description rdf:about=""/>
   </rdf:RDF>
</x:xmpmeta>
                                                                                                    
                                                                                                    
                                                                                                    
                                                                                                    
                                                                                                    
                                                                                                    
                                                                                                    
                                                                                                    
                                                                                                    
                                                                                                    
                                                                                                    
                                                                                                    
                                                                                                    
                                                                                                    
                                                                                                    
                                                                                                    
                                                                                                    
                                                                                                    
                                                                                                    
                                                                                                    
                           
<?xpacket end="w"?></metadata>
<defs>
    <style>
      .cls-1 {
        filter: url(#filter);
      }

      .cls-2 {
        fill: #fff;
        fill-rule: evenodd;
      }

      .cls-3 {
        fill: #27c686;
      }
    </style>
    <filter id="filter" filterUnits="userSpaceOnUse">
      <feFlood result="flood" flood-color="#27c686"/>
      <feComposite result="composite" operator="in" in2="SourceGraphic"/>
      <feBlend result="blend" in2="SourceGraphic"/>
    </filter>
  </defs>
  <g id="Logo-2" data-name="Logo" class="cls-1">
    <g>
      <path id="ADPLEXITY" class="cls-2" d="M74.753,116.012l-2.534-6.67H70.464l-2.534,6.67h1.587l0.414-1.13h2.82l0.414,1.13h1.587Zm-2.386-2.38H70.316l1.025-2.87Zm7.69,2.38a3.338,3.338,0,1,0-.01-6.67H77.454v6.67h2.6Zm-0.01-1.25H78.854v-4.17h1.2a1.933,1.933,0,0,1,2.051,2.08A1.986,1.986,0,0,1,80.047,114.762Zm7.976,1.25v-2.38H89.7a2.146,2.146,0,1,0,0-4.29H86.622v6.67h1.4Zm1.479-3.63H88.022v-1.79H89.5A0.9,0.9,0,1,1,89.5,112.382Zm9.5,3.63v-1.25h-2.78v-5.42h-1.41v6.67h4.19Zm7.69,0v-1.25h-3.253v-1.52h3.184v-1.25h-3.184v-1.4H106.7v-1.25h-4.653v6.67H106.7Zm9.15,0-2.386-3.43,2.238-3.24h-1.686l-1.489,2.28-1.509-2.28h-1.666l2.238,3.25-2.386,3.42h1.666l1.657-2.44,1.646,2.44h1.677Zm4.11,0v-6.67h-1.4v6.67h1.4Zm6.32,0v-5.42h1.913v-1.25h-5.246v1.25h1.923v5.42h1.41Zm8.134,0v-2.73l2.514-3.94h-1.588l-1.626,2.67-1.627-2.67h-1.6l2.524,3.94v2.73h1.4Z" transform="translate(-67.938 -48)"/>
      <path class="cls-2" d="M88.147,101.846l44.976,0.025L102.459,48,75.84,94.648l8.195,0,11.246-19.7v0.021l7.171-12.56,18.354,32.243-28.545-.015Zm-16.41-.009,8.192,0,4.1-7.19-8.195,0ZM96.671,87.583h12.68l-6.34-11.751Z" transform="translate(-67.938 -48)"/>
    </g>
  </g>
  <rect id="Rounded_Rectangle_575" data-name="Rounded Rectangle 575" class="cls-3" x="88.063" y="12" width="163" height="30" rx="15" ry="15"/>
  <path id="ECOMMERCE" class="cls-2" d="M180.069,71.492V69.8h-8V81h8.2V79.3h-6.307V76.214h5.474v-1.7h-5.474V71.492h6.115Zm10.846-1.745a5.669,5.669,0,1,0-.064,11.332,6.362,6.362,0,0,0,4.338-1.841l-1.121-1.249a4.63,4.63,0,0,1-3.121,1.329,3.946,3.946,0,1,1,0-7.891,4.374,4.374,0,0,1,3.121,1.425l1.1-1.376A6.183,6.183,0,0,0,190.915,69.748Zm14.352,0a5.673,5.673,0,1,0,5.939,5.65A5.7,5.7,0,0,0,205.267,69.748Zm0.016,1.7a3.97,3.97,0,1,1,0,7.939A3.97,3.97,0,1,1,205.283,71.444ZM228.454,81V69.8h-2.225l-3.682,7.443-3.7-7.443h-2.241V81h1.777V72.629l3.537,7.2h1.233l3.537-7.2L226.709,81h1.745Zm18.192,0V69.8h-2.225l-3.682,7.443-3.7-7.443H234.8V81h1.777V72.629l3.537,7.2h1.232l3.538-7.2L244.9,81h1.745ZM261,71.492V69.8h-8V81h8.195V79.3h-6.307V76.214h5.475v-1.7h-5.475V71.492H261ZM273.987,81h2.145l-2.513-3.746a3.6,3.6,0,0,0,2.321-3.633c0-2.433-1.648-3.825-4.514-3.825h-4.545V81h1.888V77.623h2.657c0.176,0,.352,0,0.513-0.016Zm-5.218-5.074V71.492h2.657c1.729,0,2.721.7,2.721,2.177,0,1.521-.992,2.257-2.721,2.257h-2.657ZM286.8,69.748a5.669,5.669,0,1,0-.064,11.332,6.36,6.36,0,0,0,4.338-1.841l-1.12-1.249a4.634,4.634,0,0,1-3.122,1.329,3.946,3.946,0,1,1,0-7.891,4.378,4.378,0,0,1,3.122,1.425l1.1-1.376A6.183,6.183,0,0,0,286.8,69.748Zm17.585,1.745V69.8h-8V81h8.2V79.3h-6.307V76.214h5.474v-1.7h-5.474V71.492h6.114Z" transform="translate(-67.938 -48)"/>
</svg>
