<svg width="48" height="48" xmlns="http://www.w3.org/2000/svg"><g fill="none" fill-rule="evenodd"><circle fill="#026CFF" cx="24" cy="24" r="24"/><path d="M23.599 37.694c.5.01.976.492.977.982 0 .484-.52.983-1.014.976-.47-.006-.972-.505-.96-.976.015-.506.47-.993.997-.982zm-8.225-.452c.414.02.77.348.77.752.001.398-.362.739-.766.765-.332.02-.82-.38-.738-.763-.074-.407.37-.77.734-.754zm16.612-.043c.416.002.78.366.778.777-.003.373-.397.751-.786.755-.366.004-.756-.379-.76-.745-.005-.417.357-.788.768-.787zm-14.433-4.136c.647 0 1.184.526 1.187 1.164.003.643-.547 1.182-1.204 1.18-.627-.001-1.165-.55-1.166-1.188-.001-.654.511-1.156 1.183-1.156zm12.26-.028a1.179 1.179 0 011.18 1.175c.006.597-.565 1.177-1.167 1.186-.611.009-1.205-.566-1.211-1.172-.008-.658.52-1.18 1.197-1.19zm-6.232-1.383c.75.034 1.395.618 1.385 1.402-.008.741-.659 1.391-1.4 1.386-.584-.005-1.396-.485-1.349-1.41-.045-.883.825-1.403 1.364-1.378zM10.6 30.215c.546.019.976.45.962.968-.015.54-.434.971-.933.959a.973.973 0 01-1.01-.923c-.009-.518.505-1.02.98-1.004zm26.143-.049l.106.003c.487.047.884.52.86 1.07-.021.457-.538.897-1.021.87-.503-.029-.929-.502-.905-1.006-.055-.526.542-.983 1.066-.934zm-15.78-4.094a2.327 2.327 0 012.29 2.364c-.024 1.32-1.088 2.327-2.424 2.306-1.277-.02-2.287-1.092-2.264-2.411.02-1.205 1.043-2.282 2.397-2.259zm5.457-.016c1.283-.024 2.27.994 2.356 2.222.085 1.209-.927 2.456-2.352 2.448-1.125.077-2.302-1.014-2.34-2.2-.043-1.312.922-2.442 2.336-2.47zm-10.968.909c.745-.009 1.433.66 1.434 1.392a1.411 1.411 0 01-1.384 1.394c-.753.002-1.406-.632-1.416-1.373-.009-.703.67-1.405 1.366-1.413zm16.408-.037c.699.008 1.396.706 1.387 1.392-.008.745-.677 1.41-1.415 1.408-.73-.001-1.387-.672-1.381-1.409.005-.72.693-1.399 1.409-1.391zm-13.746-5.609c1.38-.019 2.361 1.02 2.379 2.33.019 1.326-1.096 2.34-2.337 2.35-1.287.002-2.385-1.034-2.362-2.347.022-1.33.96-2.314 2.32-2.333zm11.022-.032c1.275-.031 2.366 1.029 2.395 2.328.027 1.237-1.078 2.38-2.361 2.368-1.262-.011-2.323-.982-2.345-2.318-.023-1.355 1.064-2.33 2.311-2.378zM11.395 22.5c.643.003 1.204.563 1.197 1.196-.005.587-.613 1.216-1.184 1.175-.665-.047-1.205-.573-1.189-1.217.005-.624.548-1.157 1.175-1.154zm24.493-.064a1.191 1.191 0 011.199 1.181 1.155 1.155 0 01-1.18 1.155c-.78-.005-1.153-.551-1.186-1.155-.032-.593.568-1.172 1.167-1.18zm-28.841.47c.366-.001.753.393.763.778.01.365-.371.753-.744.755-.423.002-.809-.355-.805-.746.004-.389.4-.785.786-.787zm33.222-.064c.407-.002.773.368.774.783.002.37-.4.753-.785.75-.396-.003-.765-.38-.759-.772a.797.797 0 01.77-.76zM20.957 16.55c1.153-.001 2.34 1.105 2.266 2.39.027 1.16-.941 2.297-2.405 2.297-1.215 0-2.29-1.12-2.276-2.334.016-1.359 1.088-2.353 2.415-2.353zm5.459-.008l.155.005c1.237.08 2.2 1.168 2.18 2.37-.01 1.285-1.134 2.352-2.453 2.304-1.296-.047-2.28-1.15-2.23-2.434.05-1.339 1.201-2.323 2.503-2.24zm-10.98 1.037c.76-.016 1.403.535 1.42 1.379 0 .775-.607 1.382-1.384 1.382-.756.001-1.433-.641-1.402-1.374.032-.797.568-1.37 1.367-1.387zm16.375-.052c.728-.004 1.413.666 1.413 1.382 0 .732-.66 1.41-1.386 1.406-.855-.006-1.433-.731-1.395-1.375-.057-.687.643-1.409 1.368-1.413zm-21.207-2.33c.49 0 .917.442.921.953.005.548-.404.958-.955.96-.521.002-.972-.44-.973-.956 0-.517.462-.957 1.007-.957zm26.055-.044c.53 0 1.034.441 1.037.907.003.518-.474 1.023-.963 1.02-.514-.003-.989-.447-.99-.926-.002-.565.397-1.001.916-1.001zm-13.03-2.296c.77.01 1.36.512 1.405 1.38.04.715-.671 1.416-1.4 1.39-.755-.028-1.356-.53-1.39-1.386.025-.817.618-1.395 1.386-1.384zm-6.146-.961c.619-.026 1.217.577 1.212 1.194-.006.652-.626 1.242-1.208 1.17-.51.082-1.195-.558-1.17-1.181a1.246 1.246 0 011.166-1.183zm12.316-.021c.571-.004 1.15.584 1.157 1.172.007.618-.581 1.21-1.198 1.21-.635-.002-1.195-.57-1.192-1.21.003-.62.58-1.17 1.233-1.172zM15.355 8.579c.344.006.764.438.739.76-.006.38-.395.767-.773.769-.396.002-.784-.38-.772-.787a.802.802 0 01.806-.742zm16.57-.024c.455.013.76.313.754.743-.006.424-.341.766-.749.765-.404-.002-.768-.362-.766-.76a.75.75 0 01.761-.748zm-8.29-.902c.584-.025.98.552.977.99-.003.502-.468.94-.979.936-.544-.004-.996-.451-.985-.976.01-.514.467-.955.987-.95z" fill="#FFF"/></g></svg>