<svg width="48" height="48" xmlns="http://www.w3.org/2000/svg"><g fill="none" fill-rule="evenodd"><circle fill="#F80" cx="24" cy="24" r="24"/><path d="M18.034 34.69c-3.554-.026-6.672-2.327-7.538-5.581-1.103-4.146 1.562-8.203 6.013-9.102.545-.11.738-.292.709-.815-.052-.932-.001-1.87-.063-2.802a1.205 1.205 0 00-.428-.79c-.92-.706-1.303-1.744-.938-2.746.387-1.06 1.36-1.707 2.54-1.689 1.083.016 2.074.699 2.39 1.645.368 1.097.002 2.184-1.007 2.816-.35.22-.486.464-.479.842.016.973.015 1.946.006 2.919-.003.356.113.562.525.629.395.064.77.245 1.166.3.26.035.62.026.8-.115a788.207 788.207 0 008.705-6.96c.177-.144.255-.502.228-.746-.13-1.207.249-2.197 1.341-2.87 1.206-.742 2.805-.557 3.8.39.989.942 1.154 2.415.396 3.524-.786 1.15-2.243 1.63-3.608 1.137-.343-.123-.55-.07-.812.131-2.75 2.104-5.506 4.2-8.261 6.297-.125.095-.256.183-.426.305.174.188.278.32.401.433 2.938 2.703 3.358 6.602 1.026 9.785-.239.328-.265.53.026.832a36.224 36.224 0 011.804 2.007c.28.338.564.44 1.024.407 1.416-.104 2.565.715 2.866 1.97.274 1.148-.381 2.386-1.592 2.848-.96.368-1.92.288-2.739-.36-.798-.632-1.203-1.453-.93-2.437.133-.482.04-.814-.297-1.177-.69-.743-1.336-1.522-2.032-2.324-1.469.86-2.968 1.309-4.616 1.297z" fill="#FFF"/></g></svg>