<svg width="48" height="48" xmlns="http://www.w3.org/2000/svg"><g fill="none" fill-rule="evenodd"><path d="M-.042 47.958h48v-48h-48z" fill="#5DC000"/><path d="M33.16 34.665v2.582H16.107v-2.582H33.16zm-6.331-23.717c1.833.024 3.44.642 4.677 2.082 1.5 1.738 1.618 5.439-1.262 6.998-.012.011-.166.107-.238.154.548.357 1.119.631 1.571 1.047 2.916 2.595 1.94 7.212-1.832 8.58a8.197 8.197 0 01-2.666.5H16.024v-2.463c1.88-.452 2.808-1.404 2.844-2.916.06-1.951-.595-2.749-2.868-3.474V19.29c1.856-.417 2.844-1.416 2.868-2.892.036-1.511-.893-2.487-2.868-2.999v-2.463h.586c1.815.003 7.364.012 10.243.012zm-5.153 10.71c-.012 1.928-.012 3.903-.012 5.819 1.726 0 3.404-.024 5.248-.024 1.56-.083 2.583-1.356 2.57-2.951-.011-1.488-1.082-2.701-2.605-2.785-1.678-.095-5.141-.06-5.2-.06zm-.012-7.902v5.355c1.595 0 3.142.06 4.677-.024 1.452-.07 2.452-1.166 2.547-2.57.083-1.345-.833-2.582-2.285-2.725-1.618-.143-3.273-.036-4.939-.036z" fill="#FFF" fill-rule="nonzero"/></g></svg>