<svg width="48" height="48" xmlns="http://www.w3.org/2000/svg"><g fill="none" fill-rule="evenodd"><path d="M-.042 47.958h48v-48h-48z" fill="#F2BA2E"/><path d="M29.746 26.652l3.052 3.05L24.5 38l-8.3-8.299 3.055-3.047 5.244 5.244 5.246-5.246zm-5.246-5.25l3.096 3.096h-.001l.002.002-3.097 3.098-3.098-3.098 3.098-3.098zm10.45.048L38 24.501l-3.051 3.051-3.05-3.05 3.05-3.052zm-20.899-.001l3.05 3.05-3.05 3.052L11 24.5l3.051-3.051zM24.5 11l8.297 8.297-3.051 3.051-5.246-5.246-5.244 5.244-3.05-3.051L24.5 11z" fill="#FFF" fill-rule="nonzero"/></g></svg>