<svg width="48" height="48" xmlns="http://www.w3.org/2000/svg"><defs><filter x="0%" y="0%" width="100%" height="100%" filterUnits="objectBoundingBox" id="a"><feGaussianBlur in="SourceGraphic"/></filter></defs><g fill="none" fill-rule="evenodd"><path d="M0 24c0 13.255 10.745 24 24 24s24-10.745 24-24S37.255 0 24 0 0 10.745 0 24z" fill="#F7931B" filter="url(#a)"/><path d="M26.683 30.616a3.03 3.03 0 01-1.149-.013c-1.462-.308-2.914-.657-4.37-.992-.05-.011-.097-.035-.169-.061l1.121-4.46.906.207c1.248.287 2.5.563 3.743.864 1.106.268 1.855 1.22 1.824 2.278-.03 1.053-.807 1.97-1.906 2.177m-2.915-12.073c1.227.282 2.433.517 3.612.84 1.252.341 1.977 1.63 1.64 2.774-.358 1.213-1.598 1.934-2.888 1.656-1.121-.24-2.236-.509-3.353-.767-.037-.008-.07-.03-.129-.056l1.118-4.447m8.012 7.067c1.621-1.539 2.317-3.356 1.788-5.482-.541-2.173-2.039-3.435-4.412-3.813l.114-.455c.272-1.08.545-2.162.815-3.243.138-.551.03-.722-.53-.855a57.908 57.908 0 00-.938-.214c-.528-.116-.713-.01-.839.484-.28 1.106-.557 2.212-.835 3.318l-.099.394-2.27-.52c.32-1.27.634-2.511.944-3.754.115-.463.01-.622-.478-.742a37.42 37.42 0 00-1.015-.232c-.506-.11-.67-.012-.796.48-.219.857-.432 1.715-.648 2.573l-.296 1.18-.466-.106c-1.353-.31-2.706-.622-4.06-.93-.5-.113-.638-.028-.761.455-.08.311-.157.622-.235.933-.141.565-.106.628.468.86 1.288.52 1.898 1.558 1.58 2.868a497.322 497.322 0 01-2.157 8.573c-.312 1.197-1.05 1.672-2.342 1.62-.318-.013-.531.093-.654.39a6.365 6.365 0 00-.323 1.044c-.08.365-.004.695.414.791 1.27.294 2.19.503 3.027.694l1.123.258-.111.441c-.281 1.118-.565 2.236-.842 3.355-.11.443 0 .612.456.724.362.09.726.175 1.093.25.443.092.617-.012.724-.43.287-1.13.569-2.262.853-3.392l.1-.399 2.273.52-.11.433c-.277 1.106-.558 2.211-.832 3.318-.112.452.008.635.482.751.272.068.546.127.82.189.762.175.884.105 1.063-.608.266-1.056.53-2.112.798-3.168.033-.13.077-.258.123-.408.706.162 1.362.347 2.032.455.494.08 1.014.125 1.508.072 2.961-.325 5.11-3.135 4.656-6.04a5.247 5.247 0 00-1.205-2.632" fill="#FFF"/></g></svg>