<svg width="48" height="48" xmlns="http://www.w3.org/2000/svg"><g fill="none" fill-rule="evenodd"><circle fill="#026CFF" cx="24" cy="24" r="24"/><path d="M16.66 15.761c5.952.002 11.905 0 17.858.004a2.79 2.79 0 011.927.75c.454.411.664.952.763 1.543.105.628.023 1.273-.175 1.878-.796 2.44-1.583 4.882-2.378 7.322-.15.46-.494 1.17-.777 1.565a6.779 6.779 0 01-3.045 2.393 4.361 4.361 0 01-1.621.306l-5.87-.002H11.665a.321.321 0 01-.306-.422l.351-1.074c.232-.703.466-1.406.694-2.11a.455.455 0 01.433-.31c5.271.002 9.991.005 15.276.005.717 0 .953-.664.953-.664l2.198-6.734a.391.391 0 00-.377-.511h-15.3c-.2-.027-.516-.147-.269-.68 0 0 .022-.074.1-.31.294-.896.589-1.791.88-2.687a.38.38 0 01.362-.262zm3.837 9.144a.95.95 0 01-.023.067l.013-.038-.02.059.007-.02-.025.06c-.08.175-.257.437-.61.437l-8.033-.002h-.66c-.165-.013-.471-.089-.385-.474l.017-.064a.971.971 0 01.055-.142c.313-.902.626-1.802.936-2.705a.394.394 0 01.373-.263c2.899.002 5.798.002 8.697.002.517.005.577.27.54.481l-.288.848c-.21.614-.418 1.227-.624 1.842l.021-.063z" fill="#FFF"/></g></svg>