<svg width="48" height="48" xmlns="http://www.w3.org/2000/svg"><g fill="none" fill-rule="evenodd"><path d="M-.042 47.958h48v-48h-48z" fill="#00A6FF"/><path d="M30.94 13.918l-.366 5.592-2.576-3.165 2.572 3.166.004-.001-.002.004.002.002-.002-.001-.003.022 3.077 4.977-3.69-1.314.002-.01-5.229-1.277 5.227 1.287 1.024 1.637 2.264.001 1.685 6.307.037.059-.021.003.021.075-.045-.071-1.605.303 1.332.746-4.644 2.88 3.304-3.628-3.316 3.634v-.006L23.89 21.719l6.102 13.421-6.348-6.492-3.223-1.33v.001l3.223 1.329-2.484 10.32-6.818-11.854-.004.01L7 23.026l11.454-6.978 8.209 1.03.821-1.366 3.456-1.794zM38.662 10l-.606 3.738-.027-.004-4.834 2.741-2.621 3.035.366-5.592 4.86-.456-.046.051.046-.051.639.077-.639-.077L38.662 10z" fill="#FFF" fill-rule="nonzero"/></g></svg>