<svg width="48" height="48" xmlns="http://www.w3.org/2000/svg"><g fill="none" fill-rule="evenodd"><path d="M-.042 47.958h48v-48h-48z" fill="#00A6FF"/><path d="M10.008 28.569c0-.54.009-1.081-.003-1.622a16.442 16.442 0 01.222-3.117c.295-1.726.831-3.357 1.709-4.864 1.471-2.533 3.545-4.393 6.159-5.644a12.958 12.958 0 013.646-1.143c.66-.101 1.325-.185 1.998-.179 2.86.022 5.526.739 7.929 2.339 2.358 1.569 4.127 3.644 5.19 6.31.5 1.254.808 2.564.969 3.904.18 1.48.189 2.965.161 4.454-.015.803-.012 1.606-.024 2.41-.006.349-.018.698-.11 1.04-.356 1.329-1.855 1.937-2.954 1.199-.49-.328-.734-.81-.823-1.384a7.48 7.48 0 01-.091-1.167v-4.85c0-.633-.195-1.195-.621-1.662-.747-.812-1.892-.843-2.73-.092-.469.423-.682.96-.728 1.578a8.829 8.829 0 00-.024.695c-.003 1.782.003 3.561-.01 5.344-.008 1.01-.767 1.782-1.781 1.853a1.89 1.89 0 01-1.998-1.585 4.851 4.851 0 01-.061-.815c0-1.792.003-3.583 0-5.375a2.247 2.247 0 00-.619-1.581c-.837-.893-2.098-.865-2.912.052-.399.448-.572.97-.572 1.566 0 1.77-.003 3.543 0 5.313 0 .457-.055.905-.24 1.325-.324.73-1 1.156-1.786 1.128-.746-.025-1.377-.5-1.663-1.26a2.642 2.642 0 01-.161-.936c.003-1.715.003-3.429-.003-5.143 0-.38-.016-.763-.128-1.13-.256-.844-.81-1.381-1.667-1.524-.87-.145-1.517.272-2 .983-.232.34-.308.722-.308 1.127 0 1.628.003 3.253.003 4.88 0 .48.009.958-.098 1.43-.177.785-.92 1.64-2.044 1.557-.773-.058-1.517-.707-1.733-1.538a3.61 3.61 0 01-.1-.902c.009-.998.009-1.986.006-2.974.003 0 0 0 0 0z" fill="#FFF" fill-rule="nonzero"/></g></svg>