<svg width="48" height="48" xmlns="http://www.w3.org/2000/svg"><g fill="none" fill-rule="evenodd"><path d="M-.042 47.958h48v-48h-48z" fill="#00CFD3"/><path d="M16.052 14l6.683 9.797-6.984 9.795H10l6.836-9.795L10.301 14h5.751zm16.453 11.598l5.551 7.994h-5.752l-2.772-3.863 2.973-4.131zm-4.292 5.966l1.426 2.028h-2.886l1.46-2.028zM24.497 14l6.682 9.797-7.044 9.795h-5.692l6.83-9.795L18.745 14h5.752zm13.224 0l-5.236 7.901-2.953-4.325L31.969 14h5.752zm-8.41 0l-1.091 1.647L27.094 14h2.217z" fill="#FFF" fill-rule="nonzero"/></g></svg>