<svg width="48" height="48" xmlns="http://www.w3.org/2000/svg"><g fill="none" fill-rule="evenodd"><path d="M0 24c0 13.256 10.746 24 24 24 13.255 0 24-10.744 24-24C48 10.746 37.255 0 24 0 10.746 0 0 10.746 0 24" fill="#7240FF"/><path d="M13 18.055a5.05 5.05 0 005.045 5.054 5.05 5.05 0 005.045-5.054A5.05 5.05 0 0018.045 13 5.05 5.05 0 0013 18.055m3.607 0a1.438 1.438 0 112.875 0c0 .795-.642 1.44-1.437 1.44a1.44 1.44 0 01-1.438-1.44m13.104-5.049c-2.494.118-4.554 2.09-4.78 4.58-.01.11-.016.22-.02.329a6.898 6.898 0 01-2.017 4.688l-.267.267a6.884 6.884 0 01-4.706 2.022 4.95 4.95 0 00-.325.019c-2.494.217-4.472 2.284-4.59 4.789a5.05 5.05 0 005.298 5.293c2.522-.127 4.59-2.148 4.773-4.67a5.53 5.53 0 00.013-.314 6.94 6.94 0 012.022-4.823l.05-.052a6.922 6.922 0 014.842-2.025c.103 0 .208-.006.314-.013 2.525-.177 4.551-2.252 4.676-4.785A5.05 5.05 0 0029.954 13c-.08 0-.161.002-.243.006m-1.193 5.049a1.438 1.438 0 112.875 0 1.438 1.438 0 11-2.875 0m-11.91 11.89a1.438 1.438 0 112.875 0c0 .796-.643 1.44-1.438 1.44a1.44 1.44 0 01-1.438-1.44m8.303 0A5.05 5.05 0 0029.955 35 5.05 5.05 0 0035 29.944a5.05 5.05 0 00-5.045-5.054 5.05 5.05 0 00-5.045 5.054m3.608 0a1.438 1.438 0 112.875 0 1.439 1.439 0 11-2.875 0" fill="#FFF"/></g></svg>