<svg width="48" height="48" xmlns="http://www.w3.org/2000/svg"><g fill="none" fill-rule="evenodd"><circle fill="#026CFF" cx="24" cy="24" r="24"/><path d="M23.521 11.429c.037.145.115.294.103.435-.05.562-.138 1.122-.193 1.684-.103 1.043-.147 2.095.11 3.115.18.708.458 1.398.758 2.066.595 1.32 1.234 2.618 1.857 3.924.817 1.713 1.642 3.421 2.303 5.202.303.816.563 1.644.71 2.508.136.789-.077 1.48-.491 2.116a23.623 23.623 0 01-1.331 1.881c-.797 1-1.669 1.932-2.685 2.716-.09.07-.183.144-.286.185-.11.043-.236.05-.355.072-.02-.12-.076-.25-.053-.36.063-.3.164-.592.243-.889.186-.696.41-1.385.541-2.092a5.94 5.94 0 00-.462-3.66c-.769-1.65-1.548-3.293-2.303-4.949a154.03 154.03 0 01-2.008-4.54c-.295-.707-.495-1.457-.705-2.196a6.27 6.27 0 01-.188-1.116c-.08-.828.225-1.56.634-2.251.735-1.244 1.706-2.284 2.816-3.195.295-.242.627-.438.942-.656h.043zm8.37 2.847l.083.342-.034.005c-.053.489-.105.977-.162 1.466a7.474 7.474 0 00.09 2.285c.086.449.29.88.482 1.302.51 1.115 1.047 2.219 1.566 3.331.374.8.73 1.61 1.106 2.409.456.97.854 1.961 1.13 2.998.077.29.126.587.167.884.071.517-.127.975-.38 1.399a13.794 13.794 0 01-3.189 3.658 1.47 1.47 0 01-.289.18c-.176.085-.294.008-.257-.185.051-.272.14-.537.205-.808l.246-.996c.08-.333.156-.666.211-1.002.164-.99-.12-1.912-.535-2.798-.783-1.674-1.577-3.343-2.356-5.018-.535-1.153-1.017-2.325-1.385-3.546-.34-1.134-.248-2.175.428-3.167a10.752 10.752 0 012.403-2.53c.046-.035.091-.073.143-.095.107-.043.218-.077.327-.114zm-16.346.236a7.595 7.595 0 01-.078.68c-.147.952-.188 1.905-.06 2.863.087.656.348 1.25.622 1.838l1.784 3.768c.385.827.738 1.668 1.113 2.498a15.6 15.6 0 01.896 2.6c.188.743.043 1.407-.354 2.046-.747 1.204-1.669 2.257-2.712 3.205a4.78 4.78 0 01-.61.466c-.083.054-.207.043-.312.06-.011-.1-.053-.21-.029-.302.108-.414.238-.823.352-1.235.183-.655.337-1.315.329-2.04.029-.75-.23-1.469-.552-2.164-.755-1.63-1.548-3.242-2.28-4.882-.5-1.118-.936-2.266-1.372-3.412-.14-.369-.192-.774-.277-1.164-.143-.648.02-1.252.318-1.818.643-1.223 1.586-2.185 2.666-3.022a2.03 2.03 0 01.269-.175c.214-.116.302-.062.287.19z" fill="#FFF"/></g></svg>