<svg width="48" height="48" xmlns="http://www.w3.org/2000/svg"><g fill="none" fill-rule="evenodd"><path d="M0 23.808c0 13.15 10.493 23.808 23.436 23.808 12.944 0 23.436-10.658 23.436-23.808C46.872 10.66 36.38 0 23.436 0 10.493 0 0 10.66 0 23.808" fill="#00A6FF"/><path d="M14.78 21.788l.153.009c.306.033.603.167.838.402l2.109 2.109.125.114c.693.573 1.72.54 2.374-.1l2.223-2.17.095-.084a1.107 1.107 0 011.451.083l2.213 2.162.127.113c.7.565 1.725.52 2.373-.127l2.072-2.072.106-.096a1.401 1.401 0 011.875.096l2.203 2.203.104.115c.192.241.29.532.295.824v.044l-.01.146c-.036.29-.166.57-.389.793l-9.882 9.883-.159.146a2.68 2.68 0 01-1.7.64h-.077l-.202-.011a2.67 2.67 0 01-1.656-.775l-9.883-9.883-.1-.11a1.36 1.36 0 01.1-1.812l2.231-2.231c.274-.274.632-.41.99-.41zm8.595-10.628l.206.008c.616.047 1.22.307 1.691.778l6.1 6.1.08.092c.267.35.24.853-.08 1.174l-2.879 2.88-.103.091a1.198 1.198 0 01-1.58-.083l-2.35-2.296-.118-.103a1.552 1.552 0 00-2.052.103L19.94 22.2l-.105.092a1.198 1.198 0 01-1.578-.1l-2.88-2.88-.08-.092a.896.896 0 01.08-1.174l6.1-6.1a2.674 2.674 0 011.898-.786z" fill="#FFF"/></g></svg>