<svg width="48" height="48" xmlns="http://www.w3.org/2000/svg"><g fill="none" fill-rule="evenodd"><circle fill="#00A6FF" cx="24" cy="24" r="24"/><path d="M29.023 12.706c-1.888.016-3.718.955-4.733 2.625-1.156 1.9-.924 4.202.393 5.845.33.41.363.973.09 1.422l-.116.19a1.37 1.37 0 01-1.172.645h-.322c-.538 0-1.036-.3-1.24-.774-.893-2.082-3.14-3.497-5.7-3.243-2.542.253-4.612 2.212-4.894 4.637-.37 3.18 2.23 5.873 5.488 5.873 2.303 0 4.273-1.346 5.1-3.258.208-.48.701-.788 1.245-.788h.22c.486 0 .936.249 1.177.651l.153.257a1.223 1.223 0 01-.09 1.41c-1.45 1.774-1.623 4.337-.122 6.33 1.492 1.982 4.301 2.724 6.649 1.755 3.077-1.272 4.238-4.76 2.621-7.46-1.147-1.915-3.363-2.88-5.522-2.605a1.346 1.346 0 01-1.309-.645l-.114-.19a1.239 1.239 0 01.005-1.29l.162-.267a1.35 1.35 0 011.323-.633c2.335.307 4.746-.836 5.8-3.076 1.047-2.226.31-4.917-1.747-6.367a5.702 5.702 0 00-3.246-1.044h-.1z" fill="#FFF"/></g></svg>