<svg width="48" height="48" xmlns="http://www.w3.org/2000/svg"><g fill="none" fill-rule="evenodd"><path d="M23.808 0C10.659 0 0 10.66 0 23.808c0 13.149 10.66 23.808 23.808 23.808 13.149 0 23.808-10.66 23.808-23.808C47.616 10.659 36.956 0 23.808 0" fill="#F7C51B"/><path d="M30.454 15.794c-.001-.06-.002-.12-.012-.18-.027-.171-.11-.247-.287-.262-.076-.006-.152-.003-.228-.003h-4.325c-.084 0-.168 0-.25-.008a.173.173 0 01-.161-.162c-.008-.067-.006-.135-.006-.203v-2.598l-.002-.204c-.003-.133-.113-.275-.279-.27-.046.003-.091 0-.136 0h-3.461c-.045 0-.092-.001-.136.002-.158.01-.252.093-.273.25-.01.074-.008.15-.008.225v2.621c0 .068.002.136-.002.204-.01.17-.062.22-.24.227-.068.003-.137.001-.205.001H16.55c-.068 0-.137-.002-.205.004-.156.014-.25.098-.273.254-.01.066-.008.135-.008.202v3.39c0 .06-.003.12.005.18.023.17.11.255.283.27.082.008.166.005.25.005h6.875c.083 0 .166.003.25.004.158.003.224.18.14.3-.055.08-.127.15-.193.222-.474.52-.957 1.03-1.419 1.56-1.308 1.495-2.607 2.999-3.91 4.499-.644.74-1.258 1.508-1.938 2.218-.057.06-.107.127-.163.19-.336.372-.5.815-.552 1.308-.048.45-.072.9-.067 1.352.005.52.023 1.04.037 1.559.005.165.013.33.024.496.011.158.1.248.258.262.068.006.137.003.205.003h4.348c.068 0 .137-.003.205.003.117.011.176.07.187.188.007.075.006.15.006.225v2.599c0 .082 0 .166.013.247.023.139.106.21.246.223.053.005.107.003.16.003h3.642c.045 0 .091 0 .137-.002.159-.013.249-.097.267-.254.007-.068.004-.135.004-.203l.008-2.712c0-.052-.003-.106.004-.158.014-.12.087-.19.207-.2.068-.004.137-.002.205-.002h4.12c.069 0 .137.003.205-.004a.255.255 0 00.239-.208.911.911 0 00.016-.202v-3.479c0-.053.001-.106-.008-.158-.023-.14-.094-.216-.236-.237a1.961 1.961 0 00-.295-.016H22.18c-.057 0-.116-.009-.22-.018l.11-.119c.679-.71 1.336-1.44 1.977-2.184 1.287-1.494 2.582-2.981 3.873-4.472.569-.657 1.118-1.33 1.732-1.947.165-.165.306-.355.445-.542a1.54 1.54 0 00.276-.661c.089-.513.132-1.03.131-1.55-.001-.361-.021-.722-.03-1.084-.009-.331-.013-.662-.02-.994" fill="#FFF"/></g></svg>