<?xml version="1.0" ?>
<svg enable-background="new 0 0 25.492 24.41" height="24.41px" id="Capa_1" version="1.1" viewBox="0 0 25.492 24.41" width="25.492px" xml:space="preserve" xmlns="http://www.w3.org/2000/svg" xmlns:xlink="http://www.w3.org/1999/xlink">
    <path fill="currentColor" d="M23.878,3.034C22.435,1.134,20.082,0,17.582,0c-1.813,0-3.537,0.653-4.832,1.763C11.452,0.653,9.722,0,7.898,0  C5.403,0,3.053,1.133,1.611,3.029c-1.185,1.559-2.328,4.383-1.049,8.989l0.01,0.037l0.012,0.036  c1.047,3.228,3.287,6.253,6.655,8.993c0.041,0.033,4.239,3.325,5.513,3.325c1.273,0,5.466-3.292,5.507-3.325  c3.365-2.74,5.602-5.766,6.648-8.993l0.012-0.036l0.011-0.037C26.208,7.417,25.064,4.592,23.878,3.034z M23.214,11.542  c-2.266,6.981-10.458,11.087-10.462,11.087S4.544,18.523,2.278,11.542C0.294,4.398,4.65,1.781,7.898,1.781  c2.079,0,3.98,1.089,4.854,2.784c0.873-1.695,2.751-2.784,4.83-2.784C20.83,1.781,25.199,4.398,23.214,11.542z"/>
</svg>