<svg width="66" height="45" viewBox="0 0 66 38" xmlns="http://www.w3.org/2000/svg"><path d="M65.844 0c-2.548 5.157-6.36 7.998-11.436 8.522l-.312.029c-3.775.316-6.675 1.202-8.701 2.658 1.781 2.061 1.822 4.58 1.036 6.078l-.074.133-9.227 16.067a4.8 4.8 0 01-8.194.165l-.099-.161-9.244-16.065c-.846-1.45-.71-3.99 1.024-6.092-1.959-1.476-4.778-2.391-8.457-2.746l-.412-.037C6.516 8.113 2.6 5.262 0 0c3.073 2.798 6.274 4.62 9.604 5.465 4.44 1.128 9.562-.752 15.953 2.883 4.878-1.504 9.582-1.51 14.748-.01 6.383-3.622 11.499-1.746 15.935-2.873 3.33-.846 6.53-2.667 9.604-5.465z" fill="#ff304d" fill-rule="evenodd"/></svg>