<svg viewBox="0 0 512 512" xmlns="http://www.w3.org/2000/svg"><path fill="#455A64" d="M380.9 6H131.1c-16.6 0-30 13.4-30 30v440c0 16.6 13.4 30 30 30h249.8c16.6 0 30-13.4 30-30V36c0-16.6-13.4-30-30-30zM210.6 29h90.8c2 0 3.6 1.6 3.6 3.6s-1.6 3.6-3.6 3.6h-90.8c-2 0-3.6-1.6-3.6-3.6s1.6-3.6 3.6-3.6zm-11 448.6h-35.3c-5.3 0-9.5-4.3-9.5-9.5s4.3-9.5 9.5-9.5h35.3c5.3 0 9.5 4.3 9.5 9.5s-4.2 9.5-9.5 9.5zm76.2-1.8c0 6.7-5.4 12.1-12.1 12.1h-15.5c-6.7 0-12.1-5.4-12.1-12.1v-15.5c0-6.7 5.4-12.1 12.1-12.1h15.5c6.7 0 12.1 5.4 12.1 12.1v15.5zm71.8 1.8h-35.3c-5.3 0-9.5-4.3-9.5-9.5s4.3-9.5 9.5-9.5h35.3c5.3 0 9.5 4.3 9.5 9.5s-4.2 9.5-9.5 9.5zm47.8-46.7H116.6V60.5h278.8v370.4z"/></svg>