<svg height="256" width="256" xmlns="http://www.w3.org/2000/svg"><g data-name="bitconnect bcc coin connect"><g data-name="bitconnect bcc"><circle cx="128" cy="128" data-name="Эллипс 1" r="128" fill="#f7931b"/><path d="M180 208a28.006 28.006 0 01-26.91-20.269L153 188s-3.714-12.984-25-18c-18.053-4.254-34 7-34 7l.014-.039A37 37 0 1171 111c1.074 0 2.135.056 3.186.146L74 111s20.871 2.336 30-6c10.218-9.331 8-23 8-23l.3.216a17.995 17.995 0 1120.385 14.562L133 97s-14.5-.326-23 11c-7.7 10.259-4 28-4 28a37.2 37.2 0 011.194 4.467A37.7 37.7 0 00128 160c17.406 6.475 30.068.794 33.834-1.3A28 28 0 11180 208z" data-name="Эллипс 2 копия 2" fill="#fff" fill-rule="evenodd"/><path d="M117.931 68.039l3.854 1.073-1.073 3.853-3.854-1.073zm13.5-14.926l4.817 1.341-1.341 4.817-4.817-1.342zm14.56-.1l4.817 1.342-1.341 4.816-4.817-1.341zm9.475-.476l5.78 1.61-1.61 5.78-5.78-1.609zm-13.121 9.841l5.78 1.61-1.609 5.78-5.78-1.61zm9.524 6.805l3.853 1.073-1.073 3.853-3.853-1.073zm8.085-2.939l3.853 1.073-1.073 3.853-3.854-1.07zm-3.3-21.682l4.817 1.342-1.342 4.817-4.817-1.342zm2.841-6.475l2.89.805-.805 2.89-2.89-.805zm-17.242 9.731l2.89.805-.8 2.89-2.89-.805zm-9.219 18.194l4.817 1.342-1.342 4.816-4.817-1.341zm4.646 16.865l2.89.805-.8 2.89-2.89-.805zm6.7-5.4l2.89.805-.805 2.89-2.89-.805zm-17.975-17.462l2.89.8-.8 2.891-2.89-.805zm13.706-4.488l1.927.537-.537 1.926-1.926-.536zm23.34-1.805l2.89.805-.805 2.89-2.89-.8zm5.951-13.913l1.926.536-.536 1.927-1.927-.537zm-19.218 1.914l2.89.805-.8 2.89-2.89-.805zm-13.548 7.646l1.927.537-.537 1.926-1.927-.536zm15.462 11.572l1.927.537-.536 1.927-1.927-.537z" data-name="Прямоугольник 2" stroke="#fff" stroke-width="2" fill="#fff" fill-rule="evenodd"/></g></g></svg>