<svg height="512" width="512" xmlns="http://www.w3.org/2000/svg"><g fill="#fff"><path d="M404.361 155.426L291.611 40.829c-19.546-19.771-51.193-19.771-70.792 0L108.053 155.067c-6.721 6.793-6.721 17.242 0 24.07l34.159 34.498 22.783 21.535c6.781 6.095 17.032 6.095 23.825 0l45.502-42.378c12.456-11.879 31.668-11.879 44.134 0l45.5 42.378c6.784 6.095 17.105 6.095 23.837 0l22.77-21.535 34.137-34.498c6.046-6.466 6.046-17.276-.339-23.711z"/><path d="M43.707 291.924l176.764 179.238c19.55 19.783 51.208 19.783 70.789 0l177.1-179.238c30.623-30.911 9.288-40.231-13.506-61.772l-27.753-26.6c-6.73-6.492-17.05-6.085-23.836 0l-45.15 42.399c-12.424 11.821-31.656 11.821-44.076 0l-45.906-42.399c-6.734-6.085-17.058-6.085-23.837 0l-45.516 42.399c-12.457 11.821-31.656 11.821-44.12 0l-45.505-42.399c-6.767-6.085-17.078-6.085-23.835 0l-25.602 24.081c-23.487 21.912-48.001 31.964-16.011 64.291z"/></g></svg>