<svg width="66" height="58" xmlns="http://www.w3.org/2000/svg"><g fill="none" fill-rule="evenodd"><path d="M65.844 0c-2.548 5.157-6.36 7.998-11.436 8.522l-.312.029c-3.775.316-6.675 1.202-8.701 2.658 1.781 2.061 1.822 4.58 1.036 6.078l-.074.133-9.227 16.067a4.8 4.8 0 01-8.194.165l-.099-.161-9.244-16.065c-.846-1.45-.71-3.99 1.024-6.092-1.959-1.476-4.778-2.391-8.457-2.746l-.412-.037C6.516 8.113 2.6 5.262 0 0c3.073 2.798 6.274 4.62 9.604 5.465 4.44 1.128 9.562-.752 15.953 2.883 4.878-1.504 9.582-1.51 14.748-.01 6.383-3.622 11.499-1.746 15.935-2.873 3.33-.846 6.53-2.667 9.604-5.465z" fill="#026CFF"/><path d="M12.656 57l.768-2.304h3.988l.78 2.304h2.656l-3.776-10.672H14.24L10.208 57h2.448zm4.111-4.208h-2.708l1.343-4.031 1.365 4.031zm9.158 4.448c1.141 0 2.042-.267 2.704-.8.661-.533.992-1.376.992-2.528v-5.008h-2.24v4.816c0 .512-.112.893-.336 1.144-.224.25-.592.376-1.104.376-.502 0-.867-.125-1.096-.376-.23-.25-.344-.632-.344-1.144v-4.816h-2.384v5.008c0 .779.16 1.41.48 1.896.32.485.768.845 1.344 1.08.576.235 1.237.352 1.984.352zm8.193-.24v-6.256a5.14 5.14 0 01.672-.064 14.697 14.697 0 011.712.032c.278.021.507.053.688.096v-1.744c-.149-.117-.368-.213-.656-.288-.288-.075-.682-.112-1.184-.112-.5 0-1 .067-1.496.2a9.756 9.756 0 00-1.32.448c-.384.165-.65.312-.8.44V57h2.384zm7.842.24c1.333 0 2.357-.365 3.072-1.096.715-.73 1.072-1.805 1.072-3.224 0-.992-.157-1.803-.472-2.432a3.027 3.027 0 00-1.392-1.4c-.613-.304-1.373-.456-2.28-.456-1.344 0-2.365.333-3.064 1-.699.667-1.048 1.763-1.048 3.288 0 1.419.344 2.493 1.032 3.224.688.73 1.715 1.096 3.08 1.096zm0-1.904c-.597 0-1.037-.2-1.32-.6-.283-.4-.424-1.005-.424-1.816 0-.587.061-1.053.184-1.4s.312-.6.568-.76c.256-.16.587-.24.992-.24.384 0 .71.077.976.232.267.155.467.405.6.752.133.347.2.819.2 1.416 0 .523-.067.963-.2 1.32-.133.357-.33.63-.592.816-.261.187-.59.28-.984.28zM49.144 57l1.636-2.394L52.488 57h2.832l-2.928-4.092 3.056-4.004H52.92l-1.66 2.42-1.732-2.42h-2.816l2.949 4.133L46.632 57h2.512z" fill="#001C55"/></g></svg>