<svg width="0" height="0" style="position:absolute"><symbol viewBox="0 0 32 32" id="arrow-right" xmlns="http://www.w3.org/2000/svg"><path d="M1.06 29.897l.034-.001c.506-.017.825-.409.868-.913.034-.371 1.03-9.347 15.039-9.337l.031 5.739a.999.999 0 0 0 1.634.772l12.968-10.743a.997.997 0 0 0-.003-1.547L18.664 3.224a1 1 0 0 0-1.631.775l-.031 5.613c-5.812.185-10.312 2.054-13.23 5.468C-.976 20.636.084 28.71.133 29.046c.074.49.433.851.927.851zM18.032 17.63h-.002c-10.007.006-13.831 3.385-16.014 6.369.319-2.391 1.252-5.272 3.281-7.626 2.698-3.128 7.045-4.776 12.735-4.776a1 1 0 0 0 1-1V6.104l10.389 8.542-10.389 8.622V18.63a.998.998 0 0 0-1-1z" fill="currentColor"/></symbol><symbol viewBox="0 0 50 50" id="bubble" xmlns="http://www.w3.org/2000/svg"><path fill="none" d="M0 0h50v50H0z"/><path d="M47 24c0 10.493-9.85 19-22 19-2.076 0-4.085-.248-5.99-.712 0 0-3.807 4.739-10.01 4.712 3.001-4.258 2.996-7.673 2.996-7.673C6.541 35.869 3 30.292 3 24 3 13.507 12.849 5 25 5c12.15 0 22 8.507 22 19z" fill="none" stroke="currentColor" stroke-miterlimit="10" stroke-width="1.859"/></symbol><symbol viewBox="0 0 48 48" id="copy" xmlns="http://www.w3.org/2000/svg"><path d="M0 0h48v48H0z" fill="none"/><path fill="currentColor" d="M32 2H8C5.79 2 4 3.79 4 6v28h4V6h24V2zm6 8H16c-2.21 0-4 1.79-4 4v28c0 2.21 1.79 4 4 4h22c2.21 0 4-1.79 4-4V14c0-2.21-1.79-4-4-4zm0 32H16V14h22v28z"/></symbol><symbol viewBox="0 0 16 16" id="download" xmlns="http://www.w3.org/2000/svg"><path d="M7 5v3H5l3 4 3-4H9V5zm-7 5c0-1.348.896-2.492 2.128-2.869A3.001 3.001 0 0 1 5.51 5.043 4 4 0 0 1 13 7c1.668.005 3 1.346 3 3 0 1.653-1.347 3-3.01 3H3.01A2.998 2.998 0 0 1 0 10zm0 0" fill="currentColor" fill-rule="evenodd"/></symbol><symbol viewBox="0 0 32 32" id="filters" xmlns="http://www.w3.org/2000/svg"><g fill="currentColor"><path d="M8 12.14V2H6v10.14a4 4 0 0 0 0 7.72V30h2V19.86a4 4 0 0 0 0-7.72zM7 18a2 2 0 1 1 2-2 2 2 0 0 1-2 2zM17 20.14V2h-2v18.14a4 4 0 0 0 0 7.72V30h2v-2.14a4 4 0 0 0 0-7.72zM16 26a2 2 0 1 1 2-2 2 2 0 0 1-2 2zM29 8a4 4 0 0 0-3-3.86V2h-2v2.14a4 4 0 0 0 0 7.72V30h2V11.86A4 4 0 0 0 29 8zm-4 2a2 2 0 1 1 2-2 2 2 0 0 1-2 2z"/></g></symbol><symbol viewBox="0 0 25 25" id="hamburger" xmlns="http://www.w3.org/2000/svg"><path d="M0 4c0-1.105.89-2 2.004-2h20.992C24.103 2 25 2.888 25 4c0 1.105-.89 2-2.004 2H2.004A1.997 1.997 0 0 1 0 4zm0 8c0-1.105.89-2 2.004-2h20.992c1.107 0 2.004.888 2.004 2 0 1.105-.89 2-2.004 2H2.004A1.997 1.997 0 0 1 0 12zm0 8c0-1.105.89-2 2.004-2h20.992c1.107 0 2.004.888 2.004 2 0 1.105-.89 2-2.004 2H2.004A1.997 1.997 0 0 1 0 20z" fill="currentColor" fill-rule="evenodd"/></symbol><symbol viewBox="0 0 25.492 24.41" id="heart" xmlns="http://www.w3.org/2000/svg"><path fill="currentColor" d="M23.878 3.034C22.435 1.134 20.082 0 17.582 0c-1.813 0-3.537.653-4.832 1.763C11.452.653 9.722 0 7.898 0 5.403 0 3.053 1.133 1.611 3.029.426 4.588-.717 7.412.562 12.018l.01.037.012.036c1.047 3.228 3.287 6.253 6.655 8.993.041.033 4.239 3.325 5.513 3.325 1.273 0 5.466-3.292 5.507-3.325 3.365-2.74 5.602-5.766 6.648-8.993l.012-.036.011-.037c1.278-4.601.134-7.426-1.052-8.984zm-.664 8.508c-2.266 6.981-10.458 11.087-10.462 11.087S4.544 18.523 2.278 11.542C.294 4.398 4.65 1.781 7.898 1.781c2.079 0 3.98 1.089 4.854 2.784.873-1.695 2.751-2.784 4.83-2.784 3.248 0 7.617 2.617 5.632 9.761z"/></symbol><symbol id="like" viewBox="0 0 64 64" xml:space="preserve" xmlns="http://www.w3.org/2000/svg"><style>.hst0{fill:currentColor}</style><g id="hIcon-Like" transform="translate(78 528)"><path class="hst0" d="M-22-495.6c0-3.2-2.5-4.9-6-4.9h-10.1c.7-2.7 1.1-5.3 1.1-7.5 0-8.7-2.4-10.5-4.5-10.5-1.4 0-2.4.1-3.8 1-.4.2-.6.6-.7 1l-1.5 8.1c-1.6 4.3-5.7 8-9 10.5v21.4c1.1 0 2.5.6 3.8 1.3 1.6.8 3.3 1.6 5.2 1.6h14.3c3 0 5.2-2.4 5.2-4.5 0-.4 0-.8-.1-1.1 1.9-.7 3.1-2.3 3.1-4.1 0-.9-.2-1.7-.5-2.3 1.1-.8 2.3-2.1 2.3-3.7 0-.8-.4-1.8-1-2.5 1.3-1 2.2-2.4 2.2-3.8zm-3.1 0c0 1.9-2 2.1-2.3 3-.3 1 1.2 1.4 1.2 3.2 0 1.9-2.3 1.9-2.6 2.8-.4 1.1.7 1.5.7 3.3v.3c-.3 1.5-2.6 1.6-3 2.2-.4.7.1 1.1.1 2.7 0 .9-1 1.5-2.2 1.5h-14.3c-1.1 0-2.5-.6-3.8-1.3-1.2-.6-2.4-1.2-3.7-1.5v-15.9c3.7-2.8 8.5-7.1 10.4-12.3 0-.1 0-.2.1-.2l1.4-7.5c.5-.2.9-.2 1.7-.2.3 0 1.5 1.8 1.5 7.5 0 2.2-.4 4.7-1.2 7.5h-.4c-.8 0-1.5.7-1.5 1.5s.7 1.5 1.5 1.5H-28c1.5 0 2.9.7 2.9 1.9z" id="hFill-4_2_"/><path class="hst0" d="M-58-473.5h-9c-1.7 0-3-1.3-3-3v-21c0-1.7 1.3-3 3-3h9c1.7 0 3 1.3 3 3v21c0 1.7-1.3 3-3 3zm-9-24v21h9v-21h-9zm-3-21" id="hFill-6_2_"/></g></symbol><symbol viewBox="0 0 48 48" id="question" xmlns="http://www.w3.org/2000/svg"><g fill="currentColor"><path d="M24 .017c-13.255 0-24 10.745-24 24s10.745 24.001 24 24.001 24-10.746 24-24.001-10.745-24-24-24zm0 44.126c-11.046 0-20-8.955-20-20.001s8.954-20 20-20 20 8.954 20 20-8.954 20.001-20 20.001z"/><path d="M22.782 31.945c-1.723 0-2.584.885-2.584 2.654 0 .855.223 1.52.668 1.994s1.084.713 1.916.713c.833 0 1.473-.244 1.924-.73s.678-1.145.678-1.977c0-.844-.223-1.498-.668-1.961s-1.09-.693-1.934-.693zM29.339 12.415c-1.348-1.125-3.17-1.688-5.466-1.688-2.283 0-4.443.473-6.486 1.406-1.146.516-.632 1.686-.63 1.692l.458.959s.541.917 1.707.466c.012-.004.016-.002.027-.007a22.096 22.096 0 0 1 1.532-.58c.949-.316 1.98-.475 3.094-.475 1.23 0 2.173.264 2.83.791s.984 1.283.984 2.268c0 .844-.203 1.57-.607 2.18s-1.303 1.465-2.697 2.566c-1.171.914-1.992 1.799-2.461 2.654-.469.856-.703 1.929-.703 3.218-.045.938 1.15 1.125 1.15 1.125h.722s1.374.008 1.584-1.176c.003-.016.008-.021.011-.037.048-.75.22-1.371.531-1.846.369-.563 1.1-1.272 2.189-2.128 1.277-.996 2.176-1.805 2.697-2.426s.912-1.274 1.17-1.96.387-1.468.387-2.347c-.002-1.977-.675-3.53-2.023-4.655z"/></g></symbol></svg>